<?xml version="1.0" encoding="UTF-8" standalone="no"?>
<!DOCTYPE svg PUBLIC "-//W3C//DTD SVG 1.1//EN"
 "http://www.w3.org/Graphics/SVG/1.1/DTD/svg11.dtd">
<!-- Generated by graphviz version 2.44.0 (0)
 -->
<!-- Title: G Pages: 1 -->
<svg width="517pt" height="221pt"
 viewBox="0.00 0.00 517.11 221.00" xmlns="http://www.w3.org/2000/svg" xmlns:xlink="http://www.w3.org/1999/xlink">
<g id="graph0" class="graph" transform="scale(1 1) rotate(0) translate(4 217)">
<title>G</title>
<polygon fill="white" stroke="transparent" points="-4,4 -4,-217 513.11,-217 513.11,4 -4,4"/>
<!-- zone timer -->
<g id="node1" class="node">
<title>zone timer</title>
<path fill="#89c1a8" stroke="black" d="M71.61,-176.5C71.61,-176.5 122.61,-176.5 122.61,-176.5 128.61,-176.5 134.61,-182.5 134.61,-188.5 134.61,-188.5 134.61,-200.5 134.61,-200.5 134.61,-206.5 128.61,-212.5 122.61,-212.5 122.61,-212.5 71.61,-212.5 71.61,-212.5 65.61,-212.5 59.61,-206.5 59.61,-200.5 59.61,-200.5 59.61,-188.5 59.61,-188.5 59.61,-182.5 65.61,-176.5 71.61,-176.5"/>
<text text-anchor="middle" x="97.11" y="-190.8" font-family="Times,serif" font-size="14.00">zone timer</text>
</g>
<!-- program -->
<g id="node6" class="node">
<title>program</title>
<path fill="#dddddd" stroke="black" d="M226.61,-88.5C226.61,-88.5 265.61,-88.5 265.61,-88.5 271.61,-88.5 277.61,-94.5 277.61,-100.5 277.61,-100.5 277.61,-112.5 277.61,-112.5 277.61,-118.5 271.61,-124.5 265.61,-124.5 265.61,-124.5 226.61,-124.5 226.61,-124.5 220.61,-124.5 214.61,-118.5 214.61,-112.5 214.61,-112.5 214.61,-100.5 214.61,-100.5 214.61,-94.5 220.61,-88.5 226.61,-88.5"/>
<text text-anchor="middle" x="246.11" y="-102.8" font-family="Times,serif" font-size="14.00">program</text>
</g>
<!-- zone timer&#45;&gt;program -->
<g id="edge1" class="edge">
<title>zone timer&#45;&gt;program</title>
<path fill="none" stroke="black" d="M59.34,-186.69C26.26,-179.1 -13.82,-164.93 5.11,-143 30.33,-113.8 142.01,-108.19 204.11,-107.38"/>
<polygon fill="black" stroke="black" points="204.39,-110.87 214.36,-107.28 204.33,-103.87 204.39,-110.87"/>
<text text-anchor="middle" x="28.11" y="-146.8" font-family="Times,serif" font-size="14.00">set&#45;zone</text>
</g>
<!-- zone timer&#45;&gt;program -->
<g id="edge2" class="edge">
<title>zone timer&#45;&gt;program</title>
<path fill="none" stroke="black" d="M80.5,-176.37C72.45,-165.98 66.08,-152.86 74.11,-143 90.24,-123.21 158.86,-114.12 204.41,-110.2"/>
<polygon fill="black" stroke="black" points="204.91,-113.67 214.59,-109.38 204.34,-106.69 204.91,-113.67"/>
<text text-anchor="middle" x="86.11" y="-146.8" font-family="Times,serif" font-size="14.00">start</text>
</g>
<!-- zone out -->
<g id="node2" class="node">
<title>zone out</title>
<path fill="#7db3c4" stroke="black" d="M192.61,-176.5C192.61,-176.5 231.61,-176.5 231.61,-176.5 237.61,-176.5 243.61,-182.5 243.61,-188.5 243.61,-188.5 243.61,-200.5 243.61,-200.5 243.61,-206.5 237.61,-212.5 231.61,-212.5 231.61,-212.5 192.61,-212.5 192.61,-212.5 186.61,-212.5 180.61,-206.5 180.61,-200.5 180.61,-200.5 180.61,-188.5 180.61,-188.5 180.61,-182.5 186.61,-176.5 192.61,-176.5"/>
<text text-anchor="middle" x="212.11" y="-190.8" font-family="Times,serif" font-size="14.00">zone out</text>
</g>
<!-- zone out&#45;&gt;program -->
<g id="edge5" class="edge">
<title>zone out&#45;&gt;program</title>
<path fill="none" stroke="black" d="M209.46,-176.05C208.66,-166.03 208.91,-153.41 213.11,-143 214.56,-139.44 216.53,-136.01 218.81,-132.8"/>
<polygon fill="black" stroke="black" points="221.74,-134.75 225.37,-124.8 216.33,-130.31 221.74,-134.75"/>
<text text-anchor="middle" x="236.11" y="-146.8" font-family="Times,serif" font-size="14.00">set&#45;zone</text>
</g>
<!-- zone in -->
<g id="node3" class="node">
<title>zone in</title>
<path fill="#7db3c4" stroke="black" d="M161.11,-0.5C161.11,-0.5 193.11,-0.5 193.11,-0.5 199.11,-0.5 205.11,-6.5 205.11,-12.5 205.11,-12.5 205.11,-24.5 205.11,-24.5 205.11,-30.5 199.11,-36.5 193.11,-36.5 193.11,-36.5 161.11,-36.5 161.11,-36.5 155.11,-36.5 149.11,-30.5 149.11,-24.5 149.11,-24.5 149.11,-12.5 149.11,-12.5 149.11,-6.5 155.11,-0.5 161.11,-0.5"/>
<text text-anchor="middle" x="177.11" y="-14.8" font-family="Times,serif" font-size="14.00">zone in</text>
</g>
<!-- timerctl in -->
<g id="node4" class="node">
<title>timerctl in</title>
<path fill="#bee6b0" stroke="black" d="M252.11,-0.5C252.11,-0.5 302.11,-0.5 302.11,-0.5 308.11,-0.5 314.11,-6.5 314.11,-12.5 314.11,-12.5 314.11,-24.5 314.11,-24.5 314.11,-30.5 308.11,-36.5 302.11,-36.5 302.11,-36.5 252.11,-36.5 252.11,-36.5 246.11,-36.5 240.11,-30.5 240.11,-24.5 240.11,-24.5 240.11,-12.5 240.11,-12.5 240.11,-6.5 246.11,-0.5 252.11,-0.5"/>
<text text-anchor="middle" x="277.11" y="-14.8" font-family="Times,serif" font-size="14.00">timerctl in</text>
</g>
<!-- timerctl out -->
<g id="node5" class="node">
<title>timerctl out</title>
<path fill="#bee6b0" stroke="black" d="M370.11,-176.5C370.11,-176.5 426.11,-176.5 426.11,-176.5 432.11,-176.5 438.11,-182.5 438.11,-188.5 438.11,-188.5 438.11,-200.5 438.11,-200.5 438.11,-206.5 432.11,-212.5 426.11,-212.5 426.11,-212.5 370.11,-212.5 370.11,-212.5 364.11,-212.5 358.11,-206.5 358.11,-200.5 358.11,-200.5 358.11,-188.5 358.11,-188.5 358.11,-182.5 364.11,-176.5 370.11,-176.5"/>
<text text-anchor="middle" x="398.11" y="-190.8" font-family="Times,serif" font-size="14.00">timerctl out</text>
</g>
<!-- timerctl out&#45;&gt;program -->
<g id="edge7" class="edge">
<title>timerctl out&#45;&gt;program</title>
<path fill="none" stroke="black" d="M357.89,-187.85C334.12,-182.98 304.42,-174.06 282.11,-158 273.2,-151.58 265.68,-142.26 259.85,-133.37"/>
<polygon fill="black" stroke="black" points="262.79,-131.46 254.6,-124.74 256.81,-135.11 262.79,-131.46"/>
<text text-anchor="middle" x="297.61" y="-146.8" font-family="Times,serif" font-size="14.00">pause</text>
</g>
<!-- timerctl out&#45;&gt;program -->
<g id="edge8" class="edge">
<title>timerctl out&#45;&gt;program</title>
<path fill="none" stroke="black" d="M367.32,-176.33C357.3,-170.62 346.17,-164.15 336.11,-158 325.7,-151.63 323.63,-149.2 313.11,-143 304.7,-138.04 295.53,-132.97 286.75,-128.27"/>
<polygon fill="black" stroke="black" points="288.27,-125.12 277.8,-123.54 285,-131.31 288.27,-125.12"/>
<text text-anchor="middle" x="356.11" y="-146.8" font-family="Times,serif" font-size="14.00">resume</text>
</g>
<!-- timerctl out&#45;&gt;program -->
<g id="edge9" class="edge">
<title>timerctl out&#45;&gt;program</title>
<path fill="none" stroke="black" d="M394.63,-176.22C391.54,-165.23 385.95,-151.51 376.11,-143 351.72,-121.89 315.89,-113.22 288.02,-109.72"/>
<polygon fill="black" stroke="black" points="288.09,-106.21 277.77,-108.61 287.34,-113.16 288.09,-106.21"/>
<text text-anchor="middle" x="401.61" y="-146.8" font-family="Times,serif" font-size="14.00">block</text>
</g>
<!-- timerctl out&#45;&gt;program -->
<g id="edge10" class="edge">
<title>timerctl out&#45;&gt;program</title>
<path fill="none" stroke="black" d="M414.74,-176.36C422.8,-165.96 429.16,-152.85 421.11,-143 404.61,-122.81 334.19,-113.82 287.87,-110.04"/>
<polygon fill="black" stroke="black" points="288.04,-106.54 277.8,-109.26 287.51,-113.52 288.04,-106.54"/>
<text text-anchor="middle" x="446.11" y="-146.8" font-family="Times,serif" font-size="14.00">unblock</text>
</g>
<!-- timerctl out&#45;&gt;program -->
<g id="edge11" class="edge">
<title>timerctl out&#45;&gt;program</title>
<path fill="none" stroke="black" d="M438.13,-182.17C462.47,-173.29 486.37,-159.67 472.11,-143 448.86,-115.81 346.38,-109.31 287.72,-107.84"/>
<polygon fill="black" stroke="black" points="287.73,-104.34 277.66,-107.63 287.58,-111.34 287.73,-104.34"/>
<text text-anchor="middle" x="492.61" y="-146.8" font-family="Times,serif" font-size="14.00">adjust</text>
</g>
<!-- program&#45;&gt;zone timer -->
<g id="edge3" class="edge">
<title>program&#45;&gt;zone timer</title>
<path fill="none" stroke="black" d="M214.49,-109.29C186.97,-112.39 147.47,-120.71 121.11,-143 113.79,-149.19 108.54,-158.13 104.86,-166.77"/>
<polygon fill="black" stroke="black" points="101.55,-165.64 101.35,-176.23 108.11,-168.08 101.55,-165.64"/>
<text text-anchor="middle" x="133.61" y="-146.8" font-family="Times,serif" font-size="14.00">state</text>
</g>
<!-- program&#45;&gt;zone timer -->
<g id="edge4" class="edge">
<title>program&#45;&gt;zone timer</title>
<path fill="none" stroke="black" stroke-dasharray="5,2" d="M216.63,-124.52C193.49,-137.88 161.08,-156.58 135.85,-171.14"/>
<polygon fill="black" stroke="black" points="133.82,-168.27 126.91,-176.3 137.32,-174.34 133.82,-168.27"/>
<text text-anchor="middle" x="191.61" y="-146.8" font-family="Times,serif" font-size="14.00">tick</text>
</g>
<!-- program&#45;&gt;zone in -->
<g id="edge6" class="edge">
<title>program&#45;&gt;zone in</title>
<path fill="none" stroke="black" d="M214.47,-88.68C206.98,-83.51 199.59,-77.23 194.11,-70 188.93,-63.16 185.27,-54.64 182.71,-46.56"/>
<polygon fill="black" stroke="black" points="186.04,-45.44 180.03,-36.72 179.28,-47.28 186.04,-45.44"/>
<text text-anchor="middle" x="217.11" y="-58.8" font-family="Times,serif" font-size="14.00">zone&#45;set</text>
</g>
<!-- program&#45;&gt;timerctl in -->
<g id="edge12" class="edge">
<title>program&#45;&gt;timerctl in</title>
<path fill="none" stroke="black" d="M243.64,-88.13C242.9,-78.13 243.15,-65.5 247.11,-55 248.45,-51.47 250.29,-48.05 252.42,-44.81"/>
<polygon fill="black" stroke="black" points="255.3,-46.8 258.55,-36.72 249.72,-42.57 255.3,-46.8"/>
<text text-anchor="middle" x="259.61" y="-58.8" font-family="Times,serif" font-size="14.00">state</text>
</g>
<!-- program&#45;&gt;timerctl in -->
<g id="edge13" class="edge">
<title>program&#45;&gt;timerctl in</title>
<path fill="none" stroke="black" d="M261.63,-88.18C265.71,-82.72 269.66,-76.42 272.11,-70 274.88,-62.76 276.34,-54.53 277.06,-46.85"/>
<polygon fill="black" stroke="black" points="280.55,-47.04 277.64,-36.85 273.57,-46.63 280.55,-47.04"/>
<text text-anchor="middle" x="286.61" y="-58.8" font-family="Times,serif" font-size="14.00">tick</text>
</g>
</g>
</svg>
