<?xml version="1.0" encoding="UTF-8" standalone="no"?>
<!DOCTYPE svg PUBLIC "-//W3C//DTD SVG 1.1//EN"
 "http://www.w3.org/Graphics/SVG/1.1/DTD/svg11.dtd">
<!-- Generated by graphviz version 2.44.0 (0)
 -->
<!-- Title: G Pages: 1 -->
<svg width="561pt" height="221pt"
 viewBox="0.00 0.00 561.20 221.00" xmlns="http://www.w3.org/2000/svg" xmlns:xlink="http://www.w3.org/1999/xlink">
<g id="graph0" class="graph" transform="scale(1 1) rotate(0) translate(4 217)">
<title>G</title>
<polygon fill="white" stroke="transparent" points="-4,4 -4,-217 557.2,-217 557.2,4 -4,4"/>
<!-- zone timer -->
<g id="node1" class="node">
<title>zone timer</title>
<path fill="#89c1a8" stroke="black" d="M71.7,-176.5C71.7,-176.5 122.7,-176.5 122.7,-176.5 128.7,-176.5 134.7,-182.5 134.7,-188.5 134.7,-188.5 134.7,-200.5 134.7,-200.5 134.7,-206.5 128.7,-212.5 122.7,-212.5 122.7,-212.5 71.7,-212.5 71.7,-212.5 65.7,-212.5 59.7,-206.5 59.7,-200.5 59.7,-200.5 59.7,-188.5 59.7,-188.5 59.7,-182.5 65.7,-176.5 71.7,-176.5"/>
<text text-anchor="middle" x="97.2" y="-190.8" font-family="Times,serif" font-size="14.00">zone timer</text>
</g>
<!-- program -->
<g id="node6" class="node">
<title>program</title>
<path fill="#dddddd" stroke="black" d="M261.7,-88.5C261.7,-88.5 300.7,-88.5 300.7,-88.5 306.7,-88.5 312.7,-94.5 312.7,-100.5 312.7,-100.5 312.7,-112.5 312.7,-112.5 312.7,-118.5 306.7,-124.5 300.7,-124.5 300.7,-124.5 261.7,-124.5 261.7,-124.5 255.7,-124.5 249.7,-118.5 249.7,-112.5 249.7,-112.5 249.7,-100.5 249.7,-100.5 249.7,-94.5 255.7,-88.5 261.7,-88.5"/>
<text text-anchor="middle" x="281.2" y="-102.8" font-family="Times,serif" font-size="14.00">program</text>
</g>
<!-- zone timer&#45;&gt;program -->
<g id="edge1" class="edge">
<title>zone timer&#45;&gt;program</title>
<path fill="none" stroke="black" d="M59.66,-186.68C26.44,-179.05 -13.99,-164.82 5.2,-143 20.41,-125.71 166,-114.49 239.37,-109.88"/>
<polygon fill="black" stroke="black" points="239.88,-113.36 249.65,-109.25 239.45,-106.37 239.88,-113.36"/>
<text text-anchor="middle" x="28.2" y="-146.8" font-family="Times,serif" font-size="14.00">set&#45;zone</text>
</g>
<!-- zone timer&#45;&gt;program -->
<g id="edge2" class="edge">
<title>zone timer&#45;&gt;program</title>
<path fill="none" stroke="black" d="M80.47,-176.28C72.37,-165.84 66,-152.72 74.2,-143 94.9,-118.45 185.12,-110.88 239.38,-108.54"/>
<polygon fill="black" stroke="black" points="239.54,-112.04 249.4,-108.15 239.27,-105.04 239.54,-112.04"/>
<text text-anchor="middle" x="86.2" y="-146.8" font-family="Times,serif" font-size="14.00">start</text>
</g>
<!-- zone out -->
<g id="node2" class="node">
<title>zone out</title>
<path fill="#7db3c4" stroke="black" d="M192.7,-176.5C192.7,-176.5 231.7,-176.5 231.7,-176.5 237.7,-176.5 243.7,-182.5 243.7,-188.5 243.7,-188.5 243.7,-200.5 243.7,-200.5 243.7,-206.5 237.7,-212.5 231.7,-212.5 231.7,-212.5 192.7,-212.5 192.7,-212.5 186.7,-212.5 180.7,-206.5 180.7,-200.5 180.7,-200.5 180.7,-188.5 180.7,-188.5 180.7,-182.5 186.7,-176.5 192.7,-176.5"/>
<text text-anchor="middle" x="212.2" y="-190.8" font-family="Times,serif" font-size="14.00">zone out</text>
</g>
<!-- zone out&#45;&gt;program -->
<g id="edge5" class="edge">
<title>zone out&#45;&gt;program</title>
<path fill="none" stroke="black" d="M208.38,-176.36C207.03,-165.96 207.1,-152.84 213.2,-143 219.44,-132.93 229.55,-125.57 240.09,-120.26"/>
<polygon fill="black" stroke="black" points="241.68,-123.38 249.38,-116.1 238.82,-116.99 241.68,-123.38"/>
<text text-anchor="middle" x="236.2" y="-146.8" font-family="Times,serif" font-size="14.00">set&#45;zone</text>
</g>
<!-- zone in -->
<g id="node3" class="node">
<title>zone in</title>
<path fill="#7db3c4" stroke="black" d="M196.2,-0.5C196.2,-0.5 228.2,-0.5 228.2,-0.5 234.2,-0.5 240.2,-6.5 240.2,-12.5 240.2,-12.5 240.2,-24.5 240.2,-24.5 240.2,-30.5 234.2,-36.5 228.2,-36.5 228.2,-36.5 196.2,-36.5 196.2,-36.5 190.2,-36.5 184.2,-30.5 184.2,-24.5 184.2,-24.5 184.2,-12.5 184.2,-12.5 184.2,-6.5 190.2,-0.5 196.2,-0.5"/>
<text text-anchor="middle" x="212.2" y="-14.8" font-family="Times,serif" font-size="14.00">zone in</text>
</g>
<!-- timerctl in -->
<g id="node4" class="node">
<title>timerctl in</title>
<path fill="#bee6b0" stroke="black" d="M287.2,-0.5C287.2,-0.5 337.2,-0.5 337.2,-0.5 343.2,-0.5 349.2,-6.5 349.2,-12.5 349.2,-12.5 349.2,-24.5 349.2,-24.5 349.2,-30.5 343.2,-36.5 337.2,-36.5 337.2,-36.5 287.2,-36.5 287.2,-36.5 281.2,-36.5 275.2,-30.5 275.2,-24.5 275.2,-24.5 275.2,-12.5 275.2,-12.5 275.2,-6.5 281.2,-0.5 287.2,-0.5"/>
<text text-anchor="middle" x="312.2" y="-14.8" font-family="Times,serif" font-size="14.00">timerctl in</text>
</g>
<!-- timerctl out -->
<g id="node5" class="node">
<title>timerctl out</title>
<path fill="#bee6b0" stroke="black" d="M397.2,-176.5C397.2,-176.5 453.2,-176.5 453.2,-176.5 459.2,-176.5 465.2,-182.5 465.2,-188.5 465.2,-188.5 465.2,-200.5 465.2,-200.5 465.2,-206.5 459.2,-212.5 453.2,-212.5 453.2,-212.5 397.2,-212.5 397.2,-212.5 391.2,-212.5 385.2,-206.5 385.2,-200.5 385.2,-200.5 385.2,-188.5 385.2,-188.5 385.2,-182.5 391.2,-176.5 397.2,-176.5"/>
<text text-anchor="middle" x="425.2" y="-190.8" font-family="Times,serif" font-size="14.00">timerctl out</text>
</g>
<!-- timerctl out&#45;&gt;program -->
<g id="edge7" class="edge">
<title>timerctl out&#45;&gt;program</title>
<path fill="none" stroke="black" d="M384.99,-188.97C347.3,-183.8 294.93,-173.94 282.2,-158 277.05,-151.54 275.55,-143 275.72,-134.78"/>
<polygon fill="black" stroke="black" points="279.21,-135 276.67,-124.72 272.24,-134.34 279.21,-135"/>
<text text-anchor="middle" x="297.7" y="-146.8" font-family="Times,serif" font-size="14.00">pause</text>
</g>
<!-- timerctl out&#45;&gt;program -->
<g id="edge8" class="edge">
<title>timerctl out&#45;&gt;program</title>
<path fill="none" stroke="black" d="M385.16,-181.05C369.29,-175.23 351.27,-167.47 336.2,-158 324.71,-150.78 313.42,-141.02 304.09,-132"/>
<polygon fill="black" stroke="black" points="306.3,-129.26 296.75,-124.68 301.35,-134.22 306.3,-129.26"/>
<text text-anchor="middle" x="356.2" y="-146.8" font-family="Times,serif" font-size="14.00">resume</text>
</g>
<!-- timerctl out&#45;&gt;program -->
<g id="edge9" class="edge">
<title>timerctl out&#45;&gt;program</title>
<path fill="none" stroke="black" d="M411.76,-176.13C402.68,-165.37 389.9,-151.96 376.2,-143 359.94,-132.37 340.05,-124.31 322.67,-118.57"/>
<polygon fill="black" stroke="black" points="323.37,-115.12 312.78,-115.47 321.27,-121.8 323.37,-115.12"/>
<text text-anchor="middle" x="408.7" y="-146.8" font-family="Times,serif" font-size="14.00">block</text>
</g>
<!-- timerctl out&#45;&gt;program -->
<g id="edge10" class="edge">
<title>timerctl out&#45;&gt;program</title>
<path fill="none" stroke="black" d="M431.55,-176.32C434.32,-165.65 435.48,-152.25 428.2,-143 415.27,-126.57 361.53,-116.84 322.76,-111.84"/>
<polygon fill="black" stroke="black" points="323.12,-108.36 312.77,-110.61 322.27,-115.3 323.12,-108.36"/>
<text text-anchor="middle" x="455.2" y="-146.8" font-family="Times,serif" font-size="14.00">unblock</text>
</g>
<!-- timerctl out&#45;&gt;program -->
<g id="edge11" class="edge">
<title>timerctl out&#45;&gt;program</title>
<path fill="none" stroke="black" d="M463.98,-176.31C479.42,-167.09 491.37,-155.14 481.2,-143 461.4,-119.37 375.35,-111.46 322.78,-108.82"/>
<polygon fill="black" stroke="black" points="322.9,-105.32 312.75,-108.36 322.58,-112.31 322.9,-105.32"/>
<text text-anchor="middle" x="500.7" y="-146.8" font-family="Times,serif" font-size="14.00">adjust</text>
</g>
<!-- timerctl out&#45;&gt;program -->
<g id="edge12" class="edge">
<title>timerctl out&#45;&gt;program</title>
<path fill="none" stroke="black" d="M465.51,-186.8C499.77,-179.39 540.58,-165.46 521.2,-143 496.1,-113.91 384.88,-108.25 323.04,-107.4"/>
<polygon fill="black" stroke="black" points="322.86,-103.9 312.83,-107.3 322.79,-110.9 322.86,-103.9"/>
<text text-anchor="middle" x="539.2" y="-146.8" font-family="Times,serif" font-size="14.00">scale</text>
</g>
<!-- program&#45;&gt;zone timer -->
<g id="edge3" class="edge">
<title>program&#45;&gt;zone timer</title>
<path fill="none" stroke="black" d="M249.48,-106.66C214.45,-107.38 158.14,-113.57 121.2,-143 113.7,-148.98 108.41,-157.86 104.75,-166.52"/>
<polygon fill="black" stroke="black" points="101.42,-165.44 101.27,-176.04 107.99,-167.85 101.42,-165.44"/>
<text text-anchor="middle" x="133.7" y="-146.8" font-family="Times,serif" font-size="14.00">state</text>
</g>
<!-- program&#45;&gt;zone timer -->
<g id="edge4" class="edge">
<title>program&#45;&gt;zone timer</title>
<path fill="none" stroke="black" stroke-dasharray="5,2" d="M249.62,-117.49C230.37,-123.97 205.47,-133.03 184.2,-143 166.75,-151.18 148.18,-161.69 132.7,-171"/>
<polygon fill="black" stroke="black" points="130.69,-168.13 123.97,-176.32 134.33,-174.11 130.69,-168.13"/>
<text text-anchor="middle" x="194.7" y="-146.8" font-family="Times,serif" font-size="14.00">tick</text>
</g>
<!-- program&#45;&gt;zone in -->
<g id="edge6" class="edge">
<title>program&#45;&gt;zone in</title>
<path fill="none" stroke="black" d="M249.56,-88.68C242.07,-83.51 234.68,-77.23 229.2,-70 224.02,-63.16 220.36,-54.64 217.8,-46.56"/>
<polygon fill="black" stroke="black" points="221.12,-45.44 215.11,-36.72 214.37,-47.28 221.12,-45.44"/>
<text text-anchor="middle" x="252.2" y="-58.8" font-family="Times,serif" font-size="14.00">zone&#45;set</text>
</g>
<!-- program&#45;&gt;timerctl in -->
<g id="edge13" class="edge">
<title>program&#45;&gt;timerctl in</title>
<path fill="none" stroke="black" d="M278.73,-88.13C277.99,-78.13 278.24,-65.5 282.2,-55 283.53,-51.47 285.38,-48.05 287.5,-44.81"/>
<polygon fill="black" stroke="black" points="290.38,-46.8 293.64,-36.72 284.81,-42.57 290.38,-46.8"/>
<text text-anchor="middle" x="294.7" y="-58.8" font-family="Times,serif" font-size="14.00">state</text>
</g>
<!-- program&#45;&gt;timerctl in -->
<g id="edge14" class="edge">
<title>program&#45;&gt;timerctl in</title>
<path fill="none" stroke="black" d="M296.72,-88.18C300.8,-82.72 304.74,-76.42 307.2,-70 309.97,-62.76 311.43,-54.53 312.15,-46.85"/>
<polygon fill="black" stroke="black" points="315.64,-47.04 312.72,-36.85 308.65,-46.63 315.64,-47.04"/>
<text text-anchor="middle" x="321.7" y="-58.8" font-family="Times,serif" font-size="14.00">tick</text>
</g>
</g>
</svg>
