<?xml version="1.0" encoding="UTF-8" standalone="no"?>
<!DOCTYPE svg PUBLIC "-//W3C//DTD SVG 1.1//EN"
 "http://www.w3.org/Graphics/SVG/1.1/DTD/svg11.dtd">
<!-- Generated by graphviz version 2.44.0 (0)
 -->
<!-- Title: G Pages: 1 -->
<svg width="389pt" height="256pt"
 viewBox="0.00 0.00 389.00 256.49" xmlns="http://www.w3.org/2000/svg" xmlns:xlink="http://www.w3.org/1999/xlink">
<g id="graph0" class="graph" transform="scale(1 1) rotate(0) translate(4 252.49)">
<title>G</title>
<polygon fill="white" stroke="transparent" points="-4,4 -4,-252.49 385,-252.49 385,4 -4,4"/>
<!-- zone timer -->
<g id="node1" class="node">
<title>zone timer</title>
<path fill="#89c1a8" stroke="black" d="M14.5,-211.99C14.5,-211.99 65.5,-211.99 65.5,-211.99 71.5,-211.99 77.5,-217.99 77.5,-223.99 77.5,-223.99 77.5,-235.99 77.5,-235.99 77.5,-241.99 71.5,-247.99 65.5,-247.99 65.5,-247.99 14.5,-247.99 14.5,-247.99 8.5,-247.99 2.5,-241.99 2.5,-235.99 2.5,-235.99 2.5,-223.99 2.5,-223.99 2.5,-217.99 8.5,-211.99 14.5,-211.99"/>
<text text-anchor="middle" x="40" y="-226.29" font-family="Times,serif" font-size="14.00">zone timer</text>
</g>
<!-- program -->
<g id="node6" class="node">
<title>program</title>
<path fill="#dddddd" stroke="black" d="M174,-80.99C174,-80.99 213,-80.99 213,-80.99 219,-80.99 225,-86.99 225,-92.99 225,-92.99 225,-104.99 225,-104.99 225,-110.99 219,-116.99 213,-116.99 213,-116.99 174,-116.99 174,-116.99 168,-116.99 162,-110.99 162,-104.99 162,-104.99 162,-92.99 162,-92.99 162,-86.99 168,-80.99 174,-80.99"/>
<text text-anchor="middle" x="193.5" y="-95.29" font-family="Times,serif" font-size="14.00">program</text>
</g>
<!-- zone timer&#45;&gt;program -->
<g id="edge1" class="edge">
<title>zone timer&#45;&gt;program</title>
<path fill="none" stroke="black" d="M77.77,-216.35C98.86,-207.23 124.87,-193.66 144,-175.99 159.09,-162.05 171.36,-142.41 179.79,-126.45"/>
<polygon fill="black" stroke="black" points="183.14,-127.58 184.52,-117.07 176.89,-124.42 183.14,-127.58"/>
<text text-anchor="middle" x="121" y="-209.79" font-family="Times,serif" font-size="14.00">set&#45;zone</text>
</g>
<!-- zone out -->
<g id="node2" class="node">
<title>zone out</title>
<path fill="#7db3c4" stroke="black" d="M20.5,-156.99C20.5,-156.99 59.5,-156.99 59.5,-156.99 65.5,-156.99 71.5,-162.99 71.5,-168.99 71.5,-168.99 71.5,-180.99 71.5,-180.99 71.5,-186.99 65.5,-192.99 59.5,-192.99 59.5,-192.99 20.5,-192.99 20.5,-192.99 14.5,-192.99 8.5,-186.99 8.5,-180.99 8.5,-180.99 8.5,-168.99 8.5,-168.99 8.5,-162.99 14.5,-156.99 20.5,-156.99"/>
<text text-anchor="middle" x="40" y="-171.29" font-family="Times,serif" font-size="14.00">zone out</text>
</g>
<!-- zone out&#45;&gt;program -->
<g id="edge2" class="edge">
<title>zone out&#45;&gt;program</title>
<path fill="none" stroke="black" d="M71.9,-166.82C92.99,-160.56 121.13,-150.81 144,-137.99 151.16,-133.97 158.33,-128.91 164.89,-123.77"/>
<polygon fill="black" stroke="black" points="167.29,-126.33 172.82,-117.3 162.86,-120.91 167.29,-126.33"/>
<text text-anchor="middle" x="121" y="-160.79" font-family="Times,serif" font-size="14.00">set&#45;zone</text>
</g>
<!-- zone in -->
<g id="node3" class="node">
<title>zone in</title>
<path fill="#7db3c4" stroke="black" d="M328,-118.99C328,-118.99 360,-118.99 360,-118.99 366,-118.99 372,-124.99 372,-130.99 372,-130.99 372,-142.99 372,-142.99 372,-148.99 366,-154.99 360,-154.99 360,-154.99 328,-154.99 328,-154.99 322,-154.99 316,-148.99 316,-142.99 316,-142.99 316,-130.99 316,-130.99 316,-124.99 322,-118.99 328,-118.99"/>
<text text-anchor="middle" x="344" y="-133.29" font-family="Times,serif" font-size="14.00">zone in</text>
</g>
<!-- timerctl in -->
<g id="node4" class="node">
<title>timerctl in</title>
<path fill="#bee6b0" stroke="black" d="M319,-53.99C319,-53.99 369,-53.99 369,-53.99 375,-53.99 381,-59.99 381,-65.99 381,-65.99 381,-77.99 381,-77.99 381,-83.99 375,-89.99 369,-89.99 369,-89.99 319,-89.99 319,-89.99 313,-89.99 307,-83.99 307,-77.99 307,-77.99 307,-65.99 307,-65.99 307,-59.99 313,-53.99 319,-53.99"/>
<text text-anchor="middle" x="344" y="-68.29" font-family="Times,serif" font-size="14.00">timerctl in</text>
</g>
<!-- timerctl out -->
<g id="node5" class="node">
<title>timerctl out</title>
<path fill="#bee6b0" stroke="black" d="M12,-42.99C12,-42.99 68,-42.99 68,-42.99 74,-42.99 80,-48.99 80,-54.99 80,-54.99 80,-66.99 80,-66.99 80,-72.99 74,-78.99 68,-78.99 68,-78.99 12,-78.99 12,-78.99 6,-78.99 0,-72.99 0,-66.99 0,-66.99 0,-54.99 0,-54.99 0,-48.99 6,-42.99 12,-42.99"/>
<text text-anchor="middle" x="40" y="-57.29" font-family="Times,serif" font-size="14.00">timerctl out</text>
</g>
<!-- timerctl out&#45;&gt;program -->
<g id="edge4" class="edge">
<title>timerctl out&#45;&gt;program</title>
<path fill="none" stroke="black" d="M53.93,-79.04C64.23,-91.77 79.89,-107.77 98,-114.99 115.06,-121.78 134.97,-119.75 152.1,-115.23"/>
<polygon fill="black" stroke="black" points="153.24,-118.54 161.83,-112.33 151.24,-111.83 153.24,-118.54"/>
<text text-anchor="middle" x="121" y="-122.79" font-family="Times,serif" font-size="14.00">pause</text>
</g>
<!-- timerctl out&#45;&gt;program -->
<g id="edge5" class="edge">
<title>timerctl out&#45;&gt;program</title>
<path fill="none" stroke="black" d="M80.19,-72.23C86.14,-73.87 92.23,-75.5 98,-76.99 115.57,-81.49 135.07,-86.1 151.77,-89.93"/>
<polygon fill="black" stroke="black" points="151.25,-93.39 161.77,-92.2 152.8,-86.57 151.25,-93.39"/>
<text text-anchor="middle" x="121" y="-90.79" font-family="Times,serif" font-size="14.00">resume</text>
</g>
<!-- timerctl out&#45;&gt;program -->
<g id="edge6" class="edge">
<title>timerctl out&#45;&gt;program</title>
<path fill="none" stroke="black" d="M80.25,-53.1C99.95,-50.8 123.84,-50.61 144,-57.99 153.28,-61.38 162,-67.42 169.42,-73.84"/>
<polygon fill="black" stroke="black" points="167.23,-76.58 176.93,-80.85 172.01,-71.46 167.23,-76.58"/>
<text text-anchor="middle" x="121" y="-61.79" font-family="Times,serif" font-size="14.00">block</text>
</g>
<!-- timerctl out&#45;&gt;program -->
<g id="edge7" class="edge">
<title>timerctl out&#45;&gt;program</title>
<path fill="none" stroke="black" d="M67.89,-42.94C89.33,-30.97 119.68,-19.57 144,-31.99 160.37,-40.34 172.49,-57.09 180.52,-71.74"/>
<polygon fill="black" stroke="black" points="177.56,-73.64 185.21,-80.97 183.8,-70.47 177.56,-73.64"/>
<text text-anchor="middle" x="121" y="-35.79" font-family="Times,serif" font-size="14.00">unblock</text>
</g>
<!-- timerctl out&#45;&gt;program -->
<g id="edge8" class="edge">
<title>timerctl out&#45;&gt;program</title>
<path fill="none" stroke="black" d="M53.93,-42.93C64.23,-30.2 79.89,-14.2 98,-6.99 116.99,0.58 126.49,3.58 144,-6.99 166.96,-20.83 179.6,-49.57 186.17,-71.26"/>
<polygon fill="black" stroke="black" points="182.81,-72.25 188.85,-80.95 189.56,-70.38 182.81,-72.25"/>
<text text-anchor="middle" x="121" y="-10.79" font-family="Times,serif" font-size="14.00">adjust</text>
</g>
<!-- program&#45;&gt;zone in -->
<g id="edge3" class="edge">
<title>program&#45;&gt;zone in</title>
<path fill="none" stroke="black" d="M225.27,-106.86C248.71,-112.86 281.09,-121.14 305.96,-127.51"/>
<polygon fill="black" stroke="black" points="305.21,-130.93 315.77,-130.02 306.95,-124.15 305.21,-130.93"/>
<text text-anchor="middle" x="266" y="-125.79" font-family="Times,serif" font-size="14.00">zone&#45;set</text>
</g>
<!-- program&#45;&gt;timerctl in -->
<g id="edge9" class="edge">
<title>program&#45;&gt;timerctl in</title>
<path fill="none" stroke="black" d="M225.27,-93.39C245.92,-89.64 273.49,-84.62 296.76,-80.39"/>
<polygon fill="black" stroke="black" points="297.56,-83.8 306.77,-78.57 296.31,-76.92 297.56,-83.8"/>
<text text-anchor="middle" x="266" y="-92.79" font-family="Times,serif" font-size="14.00">state</text>
</g>
<!-- program&#45;&gt;timerctl in -->
<g id="edge10" class="edge">
<title>program&#45;&gt;timerctl in</title>
<path fill="none" stroke="black" d="M213.14,-80.75C221.55,-73.76 232.05,-66.61 243,-62.99 259.86,-57.41 279.13,-57.7 296.23,-60.06"/>
<polygon fill="black" stroke="black" points="296.12,-63.59 306.56,-61.77 297.26,-56.69 296.12,-63.59"/>
<text text-anchor="middle" x="266" y="-66.79" font-family="Times,serif" font-size="14.00">tick</text>
</g>
</g>
</svg>
