<?xml version="1.0" encoding="UTF-8" standalone="no"?>
<!DOCTYPE svg PUBLIC "-//W3C//DTD SVG 1.1//EN"
 "http://www.w3.org/Graphics/SVG/1.1/DTD/svg11.dtd">
<!-- Generated by graphviz version 2.44.0 (0)
 -->
<!-- Title: G Pages: 1 -->
<svg width="582pt" height="110pt"
 viewBox="0.00 0.00 582.27 110.00" xmlns="http://www.w3.org/2000/svg" xmlns:xlink="http://www.w3.org/1999/xlink">
<g id="graph0" class="graph" transform="scale(1 1) rotate(0) translate(4 106)">
<title>G</title>
<polygon fill="white" stroke="transparent" points="-4,4 -4,-106 578.27,-106 578.27,4 -4,4"/>
<!-- paused -->
<g id="node1" class="node">
<title>paused</title>
<ellipse fill="lightyellow" stroke="black" cx="539.18" cy="-51" rx="35.19" ry="18"/>
<text text-anchor="middle" x="539.18" y="-47.3" font-family="Times,serif" font-size="14.00">paused</text>
</g>
<!-- running -->
<g id="node3" class="node">
<title>running</title>
<ellipse fill="none" stroke="black" cx="389.73" cy="-51" rx="38.19" ry="18"/>
<text text-anchor="middle" x="389.73" y="-47.3" font-family="Times,serif" font-size="14.00">running</text>
</g>
<!-- paused&#45;&gt;running -->
<g id="edge1" class="edge">
<title>paused&#45;&gt;running</title>
<path fill="none" stroke="black" d="M503.98,-51C484.46,-51 459.69,-51 438.3,-51"/>
<polygon fill="black" stroke="black" points="438.11,-47.5 428.11,-51 438.11,-54.5 438.11,-47.5"/>
<text text-anchor="middle" x="466.08" y="-54.8" font-family="Times,serif" font-size="14.00">resume</text>
</g>
<!-- blocked -->
<g id="node2" class="node">
<title>blocked</title>
<ellipse fill="pink" stroke="black" cx="38.35" cy="-51" rx="38.19" ry="18"/>
<text text-anchor="middle" x="38.35" y="-47.3" font-family="Times,serif" font-size="14.00">blocked</text>
</g>
<!-- stopped -->
<g id="node4" class="node">
<title>stopped</title>
<ellipse fill="none" stroke="black" cx="195.04" cy="-51" rx="38.19" ry="18"/>
<text text-anchor="middle" x="195.04" y="-47.3" font-family="Times,serif" font-size="14.00">stopped</text>
</g>
<!-- blocked&#45;&gt;stopped -->
<g id="edge5" class="edge">
<title>blocked&#45;&gt;stopped</title>
<path fill="none" stroke="black" d="M67.6,-39.29C76.16,-36.3 85.67,-33.5 94.69,-32 113.98,-28.78 119.4,-28.78 138.69,-32 144.47,-32.96 150.45,-34.46 156.26,-36.19"/>
<polygon fill="black" stroke="black" points="155.19,-39.53 165.78,-39.29 157.35,-32.87 155.19,-39.53"/>
<text text-anchor="middle" x="116.69" y="-35.8" font-family="Times,serif" font-size="14.00">unblock</text>
</g>
<!-- running&#45;&gt;paused -->
<g id="edge2" class="edge">
<title>running&#45;&gt;paused</title>
<path fill="none" stroke="black" d="M418.99,-39.29C427.54,-36.3 437.06,-33.5 446.08,-32 463.61,-29.07 468.57,-28.91 486.08,-32 491.53,-32.96 497.16,-34.45 502.62,-36.18"/>
<polygon fill="black" stroke="black" points="501.57,-39.52 512.17,-39.49 503.87,-32.91 501.57,-39.52"/>
<text text-anchor="middle" x="466.08" y="-35.8" font-family="Times,serif" font-size="14.00">pause</text>
</g>
<!-- running&#45;&gt;running -->
<g id="edge7" class="edge">
<title>running&#45;&gt;running</title>
<path fill="none" stroke="black" stroke-dasharray="5,2" d="M403.2,-68.04C405.95,-77.86 401.46,-87 389.73,-87 382.4,-87 377.9,-83.43 376.23,-78.35"/>
<polygon fill="black" stroke="black" points="379.73,-78.05 376.27,-68.04 372.73,-78.02 379.73,-78.05"/>
<text text-anchor="middle" x="389.73" y="-90.8" font-family="Times,serif" font-size="14.00">tick, t&gt;0</text>
</g>
<!-- running&#45;&gt;running -->
<g id="edge8" class="edge">
<title>running:sw&#45;&gt;running</title>
<path fill="none" stroke="black" d="M373.73,-35C354.73,-27 354.73,-15 381.73,-15 392.15,-15 398.55,-18.57 401.38,-23.65"/>
<polygon fill="black" stroke="black" points="397.97,-24.51 402.75,-33.96 404.91,-23.59 397.97,-24.51"/>
<text text-anchor="middle" x="389.73" y="-3.8" font-family="Times,serif" font-size="14.00">adjust (set t)</text>
</g>
<!-- running&#45;&gt;stopped -->
<g id="edge6" class="edge">
<title>running&#45;&gt;stopped</title>
<path fill="none" stroke="black" stroke-dasharray="5,2" d="M351.12,-51C320.49,-51 277.03,-51 243.92,-51"/>
<polygon fill="black" stroke="black" points="243.56,-47.5 233.56,-51 243.56,-54.5 243.56,-47.5"/>
<text text-anchor="middle" x="292.39" y="-69.8" font-family="Times,serif" font-size="14.00">tick, t=0</text>
<text text-anchor="middle" x="292.39" y="-54.8" font-family="Times,serif" font-size="14.00">(time runs out)</text>
</g>
<!-- stopped&#45;&gt;blocked -->
<g id="edge4" class="edge">
<title>stopped&#45;&gt;blocked</title>
<path fill="none" stroke="black" d="M156.59,-51C135.67,-51 109.39,-51 87.02,-51"/>
<polygon fill="black" stroke="black" points="86.72,-47.5 76.72,-51 86.72,-54.5 86.72,-47.5"/>
<text text-anchor="middle" x="116.69" y="-54.8" font-family="Times,serif" font-size="14.00">block</text>
</g>
<!-- stopped&#45;&gt;running -->
<g id="edge3" class="edge">
<title>stopped&#45;&gt;running</title>
<path fill="none" stroke="black" d="M225.2,-39.62C233.53,-36.9 242.7,-34.38 251.39,-33 287.38,-27.29 297.39,-27.29 333.39,-33 338.81,-33.86 344.43,-35.17 349.91,-36.69"/>
<polygon fill="black" stroke="black" points="348.98,-40.07 359.57,-39.62 351.02,-33.37 348.98,-40.07"/>
<text text-anchor="middle" x="292.39" y="-36.8" font-family="Times,serif" font-size="14.00">start</text>
</g>
</g>
</svg>
